<svg xmlns="http://www.w3.org/2000/svg" xmlns:xlink="http://www.w3.org/1999/xlink" version="1.1" x="0px" y="0px" viewBox="0 0 100 125" enable-background="new 0 0 100 100" xml:space="preserve"><g><g><g><rect x="29.759" y="32.094" transform="matrix(0.9764 0.2158 -0.2158 0.9764 11.9051 -5.4169)" width="2" height="39.433"/></g><g><rect x="49" y="47.542" width="2" height="47.02"/></g><g><rect x="49.524" y="50.811" transform="matrix(0.216 0.9764 -0.9764 0.216 104.8702 -26.9876)" width="39.433" height="2"/></g><g><path d="M0.528,98.447l18.645-51.456l15.845-15.846L50,46.127l14.981-14.981l15.846,15.846l0.076,0.209l18.568,51.247     L73.5,72.476L50,95.976l-23.5-23.5L0.528,98.447z M26.5,69.647l23.5,23.5l23.5-23.5l21.028,21.028l-15.43-42.584L64.981,33.974     L50,48.956L35.019,33.974L20.902,48.091L5.472,90.676L26.5,69.647z"/></g></g><g><path d="M50,5.439c-5.523,0-10,4.477-10,10c0,5.523,4.477,10,10,10s10-4.477,10-10C60,9.916,55.523,5.439,50,5.439z M50,20.439    c-2.761,0-5-2.239-5-5s2.239-5,5-5s5,2.239,5,5S52.761,20.439,50,20.439z"/></g><g><polyline points="42.5,22.039 50,29.539 57.5,22.039   "/></g><g><polygon points="50,94.561 26.5,71.061 35.019,32.56 50,47.542   "/></g><g><polygon points="97,94.561 73.5,71.061 64.981,32.56 79.963,47.542   "/></g></g><text x="0" y="115" fill="#000000" font-size="5px" font-weight="bold" font-family="'Helvetica Neue', Helvetica, Arial-Unicode, Arial, Sans-serif">Created by Owen Payette McGarry</text><text x="0" y="120" fill="#000000" font-size="5px" font-weight="bold" font-family="'Helvetica Neue', Helvetica, Arial-Unicode, Arial, Sans-serif">from the Noun Project</text></svg>